<svg xmlns="http://www.w3.org/2000/svg" id="Layer_2" viewBox="0 0 332 110"><defs><style>.cls-1{fill:#2b2b2b}.cls-2{fill:#F5E0B1}</style></defs><g id="Layer_1-2"><path d="M332 110H0V0h332v110Zm-12.3-12.2V12.2H11.8v85.6h307.8Z" class="cls-2"/><path d="M319.6 97.8H12V12.2h307.8v85.6ZM16.1 93.6h299.5v-77H16.2v77Z" class="cls-1"/><path d="M16.2 93.5v-77h299.4v77H16.2Zm167-63.3c2 5.4 4.1 10 5.5 14.6 1 3.5 0 6.8-3.3 8.7-3.4 2-6.6.3-8.3-2.4-3.4-5.5-6-11.3-9.1-17-.8-1.5-1.9-3.9-3-4-4.9-.4-9.8-.1-14.8-.1v48.7h15C164 76 162.6 74 162 72c-1-3.8-2.2-7.8-2-11.6.4-4.9 4.7-6.7 8.1-3.3 4.2 4.2 7.6 9.4 10.9 14.4 1.4 2.1 1.7 5 2.5 7.2h16V30.2h-14.3Zm24.2 48.5h47.3V65.4c-2 1.1-3.4 2-4.8 2.6-3.1 1.2-6.2 2.9-9.4 3a11 11 0 0 1-7.8-2.8c-1-1.2-.1-5.4 1.3-7 5.1-6 10.6-11.6 16.4-16.8 5-4.5 6-7.3 3.7-14.1h-46.6v15.3c2.4-1.2 4-2.3 5.8-3 3.4-1 7-2.6 10.4-2.8 6.2-.1 8.8 4.4 5 9.2A64.8 64.8 0 0 1 213 64c-6 3.8-7 8-5.7 14.6ZM93 31.1V79h47V62.7l-4.7 2.6c-8.7 4.3-17.9 6.1-27.5 3.6-5.2-1.4-6.7-4.6-4.7-10.6h23.6v-7h-23.5c10.4-19 23.6-12.8 37-5.4V31H93ZM42 78.7h35l-2.6-3.6a44.7 44.7 0 0 1-10.1-25.6c0-2.6 1.5-5.8 3.4-7.5.8-.8 4.7 1 6.6 2.5 2.2 1.7 3.8 4.2 5.7 6.3l2.6 2.2V31.2H35.2V54l4-4.4c2.3-2.2 4.3-4.8 6.9-6.5 4.5-3 8.3-.9 7.6 4.4a89.3 89.3 0 0 1-4.4 18.3c-1.6 4.4-4.6 8.3-7.3 13Zm252.2-48.3h-31c5.8 16.4 13.3 32.2.6 48.4h31.6c-6-16.1-13.6-31.7-1.2-48.4Z" class="cls-2"/><path d="M183.2 30.2h14.3v48.5h-16c-.8-2.4-1-5.2-2.5-7.3-3.3-5-6.7-10.2-10.9-14.4-3.3-3.4-7.7-1.6-8 3.3-.3 3.8 1 7.8 2 11.6.5 2.1 1.8 4.1 3.1 6.8h-15V30c5 0 10-.3 14.8.2 1.2 0 2.2 2.4 3 4 3 5.6 5.7 11.5 9.1 16.9 1.7 2.7 4.9 4.4 8.3 2.4a7.1 7.1 0 0 0 3.3-8.6c-1.4-4.8-3.4-9.3-5.4-14.7ZM207.4 78.7c-1.3-6.6-.4-10.8 5.7-14.6A65 65 0 0 0 228.7 49c3.8-4.8 1.3-9.3-5-9.2-3.4.2-7 1.7-10.4 2.9-1.8.6-3.4 1.7-5.8 3V30.2H254c2.4 6.8 1.3 9.6-3.7 14.1A196.3 196.3 0 0 0 234 61.1c-1.4 1.7-2.3 6-1.3 7 1.7 2 5.2 3 7.8 3 3.2-.2 6.3-2 9.4-3.1 1.5-.6 2.8-1.5 4.8-2.6v13.3h-47.3ZM93 31.1h47.3V46c-13.5-7.4-26.7-13.6-37.1 5.5h23.5v7H103c-2 6-.4 9.1 4.8 10.5 9.6 2.5 18.8.7 27.5-3.6l4.7-2.6V79H93V31ZM42 78.7c2.7-4.7 5.7-8.6 7.3-13a89.3 89.3 0 0 0 4.4-18.3c.7-5.3-3-7.3-7.6-4.4-2.6 1.7-4.6 4.3-6.8 6.5-1.1 1-2.1 2.3-4 4.4V31.2h47.3V53c-1-1-2-1.5-2.6-2.2-2-2.1-3.5-4.6-5.7-6.3-1.9-1.4-5.8-3.3-6.6-2.5-2 1.7-3.5 5-3.4 7.5.1 9.7 4.5 18 10.1 25.6l2.7 3.7H42ZM294.2 30.4c-12.4 16.7-4.8 32.3 1.2 48.4h-31.6c12.7-16.2 5.2-32-.7-48.4h31Z" class="cls-1"/></g></svg>